<?xml version="1.0" encoding="utf-8"?>
<!-- Generator: Adobe Illustrator 17.1.0, SVG Export Plug-In . SVG Version: 6.00 Build 0)  -->
<!DOCTYPE svg PUBLIC "-//W3C//DTD SVG 1.1 Tiny//EN" "http://www.w3.org/Graphics/SVG/1.1/DTD/svg11-tiny.dtd">
<svg version="1.1" baseProfile="tiny" id="Layer_1" xmlns="http://www.w3.org/2000/svg" xmlns:xlink="http://www.w3.org/1999/xlink"
	 x="0px" y="0px" width="1224px" height="792px" viewBox="0 0 1224 792" xml:space="preserve">
<path d="M741.3,610.2c-7.4,0-14.7-2-21.1-5.8c-32.8-19.4-70.2-29.6-108.4-29.6c-38.1,0-75.6,10.2-108.4,29.6
	c-6.4,3.8-13.7,5.8-21.1,5.8c-14.7,0-28.4-7.8-35.8-20.4c-5.6-9.6-7.2-20.7-4.5-31.5c2.8-10.7,9.6-19.8,19.1-25.4
	c45.6-26.9,97.7-41.1,150.6-41.1c53,0,105.1,14.2,150.6,41.1c9.6,5.6,16.3,14.7,19.1,25.4c2.8,10.7,1.2,21.9-4.5,31.5
	C769.7,602.4,756,610.2,741.3,610.2z"/>
<path d="M356.9,325c-15.8,0-30-8.8-37.2-22.9c-5-9.9-5.8-21.2-2.3-31.7s10.9-19.1,20.8-24.1c85.5-43.1,177.6-64.9,273.7-64.9
	c96.1,0,188.2,21.8,273.7,64.9c9.9,5,17.3,13.5,20.8,24.1c3.5,10.5,2.6,21.8-2.3,31.7c-7.1,14.1-21.3,22.9-37.1,22.9
	c-6.5,0-12.8-1.5-18.7-4.4c-73.8-37.2-153.3-56-236.3-56c-83,0-162.5,18.8-236.3,56C369.7,323.5,363.4,325,356.9,325z"/>
<path d="M804.2,468.7c-6.7,0-13.5-1.7-19.4-4.8C731.8,435.8,672,421,611.9,421c-60.2,0-119.9,14.8-172.9,42.9
	c-6,3.2-12.7,4.8-19.4,4.8c-15.4,0-29.5-8.5-36.7-22.1c-10.7-20.2-3-45.4,17.3-56.2c64.9-34.4,138.1-52.5,211.8-52.5
	c73.7,0,146.9,18.2,211.8,52.5c20.2,10.7,28,35.9,17.3,56.2C833.7,460.2,819.6,468.7,804.2,468.7z"/>
</svg>
