<?xml version="1.0" encoding="utf-8"?>
<!-- Generator: Adobe Illustrator 17.1.0, SVG Export Plug-In . SVG Version: 6.00 Build 0)  -->
<!DOCTYPE svg PUBLIC "-//W3C//DTD SVG 1.1 Tiny//EN" "http://www.w3.org/Graphics/SVG/1.1/DTD/svg11-tiny.dtd">
<svg version="1.1" baseProfile="tiny" id="Layer_1" xmlns="http://www.w3.org/2000/svg" xmlns:xlink="http://www.w3.org/1999/xlink"
	 x="0px" y="0px" width="352.6px" height="478.9px" viewBox="0 0 352.6 478.9" xml:space="preserve">
<path fill="none" stroke="#FFFFFF" stroke-miterlimit="10" d="M333.4,307.9l0.3-7.3l-23-27.3l-37-33.3l-6-21.7l76.3-17.7v-85.7
	l-54.3,28.3l0.7,4.7l9.3,9.3l-27,0.3l-0.7-2.3l-5-93.3l8.7,0.3l1.3-3.3l-25.7-9.7l-1-3.7l-7,1l-11-5.7l-1-6l-3.3-3.3l0.3-15.7
	L224,6.4L211.9,0l-11.3,1.5l-10.1,4.3l-5.7,9.8l-0.2,16l-4,2v6.3v6.3h5.3l0.7,13.7l-6,7.3l-18-9l-10.7,6l-6.3,11l-3,15l3,23.3
	l6,16.3l-0.3,25.3v17.7l-6.7,16.3l-6.7,18l-8,19l-8.3,15.7H97l-11.3,2.3l-5.7-1.3l-11.3,1.3H59V82.9l20.7-10l20-16l7-10.7l-1-7.3
	l-8-5l-19,1l-16.3,5l-8.3-1l-9,2.7l-1.3,4.3l-18,13L12.3,71.2l-4,8.3v6l7.7,3.3l10,1.3l12.7-3.3l16.7-3.7l-0.3,161l-11,5l-0.3,39.7
	l6,2.7h26.7L0,387.2v8.9 M263.3,146.9l-1.2,6.5l-9.5-4.2V133l-4-10.3l-4.7-13.7l-15.5-23V74.8H224l-0.6-6.5l1.2-14.8l19.7,4.3
	l2.3-1.2l15,5.5l1.7,30.3l-1.8,16.5L263.3,146.9z"/>
</svg>
