<?xml version="1.0" encoding="utf-8"?>
<!-- Generator: Adobe Illustrator 17.1.0, SVG Export Plug-In . SVG Version: 6.00 Build 0)  -->
<!DOCTYPE svg PUBLIC "-//W3C//DTD SVG 1.1//EN" "http://www.w3.org/Graphics/SVG/1.1/DTD/svg11.dtd">
<svg version="1.1" id="Layer_1" xmlns="http://www.w3.org/2000/svg" xmlns:xlink="http://www.w3.org/1999/xlink" x="0px" y="0px"
	 width="498px" height="597.7px" viewBox="0 0 498 597.7" enable-background="new 0 0 498 597.7" xml:space="preserve">
<g>
	<defs>
		<path id="SVGID_1_" d="M487.3,453.7l-1.2-2.9l-1.5-1.8l-2.5-1.5h-3h-3.5l-3.3,1.4l-3.5,2.3l-3.3,1.8l-2.8,0.8l-1.4,0.4l-2.1-1.2
			l-2.3-0.3l-5.4-0.1l-3.2,1l-5.1,0.7l-5.5,0.1h-6.1l-4.4-0.1l-5.4-0.4l-3.2-0.7l-1.1-1.5l3.7-1.4l2.6-1l0.7-1.8l-0.1-1.9l-1.8-2.1
			l5-6.9l5.9-7.6l-0.6-1.8l-3,3l-5.8,7l-3.5,4.6l-2.9,1.5l-2.2-0.7l-2.9,1.9l-2.6,1.1l-1.8,1.1l-0.4,1.7l-1,1.7l-3-3.3l-0.7-7.3
			l-3-17.7l-3.9-20.9l-1.5-10.9l-1.4-8.4l-1.9-8.3l-1.5-4.8l-0.4-6.9l3.3,4.7l4.1,6.2l1.8,2.3l1.5-0.6l0.3-1.8l-1.4-2.5l-3.2-4.1
			l-2.1-3.2l-3.5-4l-0.8-2.8l2.2-1.2l3.9,0.7l2.8,2.6l3.5,4.3l2.9,3.9l2.3,5.4l1.8,3l2.1,0.3l0.3-2.6l-1.2-2.3l-2.1-2.9l-2.1-4.4
			l-2.6-3.5l-1.1-2.8l1.4-1.7l1-1.5l0.7-1.5l1.9,2.3l3.2,4.6l3,4.6l2.5,3.2l1.2,3.2l1.2,1l2.2-1.2l0.1-3.3l-1.5-1.9l-2.6-2.6
			l-1.2-2.1l-1.4-2.8l0.1-2.2l0.3-2.6h2.1c0,0,0.8,1,1.2,1c0.4,0,1.8,1.1,1.8,1.1l1,2.6l1,2.9l1.9-0.3l0.3-3.7l-0.1-3.6v-1.2
			l-1.1-5.2l-1.2-3l-1.9-3l-0.1-2.5l2.3,2.1l1.2,1.9l2.3,1l2.1,1.1l1.7,2.1l0.8,2.5l0.3,2.8l1.1,1.9l2.1,5.2l3.7,5.5l1.2,3.7
			c0,0,1,5.7,1,6.2c0,0.6,0.3,3,0.3,3s1.4,1.8,1.8,1.8s1.5-0.3,1.5-0.3l0.1-6.2l1-1.9l0.8-1.8l1.2,2.3l0.1,3.5l0.6,4.7l1.2,1.8
			l1.4-0.7l1.4-1.9l0.3-2.6l-0.1-3.2l1.7-1.8l1.2,1.7l0.3,2.5l0.3,3.2l0.6,1.5l1.9,0.6l1.1-1.2l0.4-2.3l-0.7-3.6l2.2-2.8l0.8,0.4
			l0.1,2.1l0.3,3.5v1.5l2.3-0.4l1.1-1.8l0.6-3.2l0.3-3.2l0.1-8.6l-1.7-4.7l-3.3-8.4l-4.7-6.9l-6.9-6.2l-8.3-11.3l-14.1-12.8l-12-13
			l-9.1-12.4l-7.2-9.8l-1.2-2.6l1.2-4.9l0.9-3.1l0.7-3.9l0.4-4.8l-0.3-7.3l2.5-3.6l2.8-6.6l1.7-6.9l1.1-8.8l-0.5-10.5l-1.2-8
			l-2-10.6l-1.2-9.5l-1.1-10.8l1-4.2l2.3-4.2l3.4-5.2l3.8-3l4.2-2.4l5.2-2.1l4-1.1l1.8-2.4l0.5-2.7l-0.2-2l-1.1-3c0,0,2-0.7,2.3-1
			c0.3-0.3,0.8-2.7,0.8-2.7l-0.2-2.4l-0.2-2.7l0.2-2.8l2.5-1.3l-0.3-0.9l0.4-2.8l2.4-1l1.6-1.5l0.4-2.7l-0.7-2.3l-1.3-1.9l-1.3-2.3
			c0,0,0.3-1,0.7-1.5s2.9-1.3,2.9-1.3l1.6-1.8l0.3-3.1l-1.1-3.2l-1.6-2.6l-1.7-2.6l-1.9-2.6l0.7-2l1.7-3l-0.3-3.9l-2.3-4.4l-1.5-5.3
			l-1.8-2.8l-1.8-2.6l-0.6-1.3l1.1-2.5l0.6-2.3v-3.7l-0.7-3.2l-2.7-4.5l-4.4-5.8l-3.4-3.5l-4.5-2.6l-3-1.3l-2.8-0.7l-2.9,1l-3.3,0.9
			l-2.7,0.6l-3.5-1l-5.9-3.9l-3.8-3.9l-3.5-3.6l-3.4-2.6l-1.3,0.8l-0.4,1.3l-3.4,0.4l-3,0.3c0,0-1,1-0.8,1.6
			c0.2,0.5,3.5,2.6,3.5,2.6s3.8,2.6,4.1,2.7c0.3,0.1,6.1,5.4,6.1,5.4l-6.5-0.8l-5.3,0.7L366,41l-2.3,1.1l-3,2.6c0,0-3.1,1.5-3.4,1.9
			c-0.3,0.4-1.7,3.6-1.7,3.6l-1.9,3.6l-2.5,3l-1.7,4l-1.3,3.6l-0.8,3.9l6.8-1.3l-1.1,3.6l-3.7,2.1l-1.8,3.9l0.8,3.1v2.8l2,2.2
			l0.2,4.6l3,2.3l-0.3,3.3l0.5,5.7l2.2,1.8l0.9,3.6l1.3,2.9l2.2,3.1l3.1,2.9l0.5,3.7l0.6,5.2l0.1,4.4h-2.7l-7.5,0.9l-5.5,1.7
			l-7.4,3.2l-9,5.5l-4.9,4.4l-5.7,5.4l-3.6,5.4l-4.6,6.6l-3.9,6.6l-2.5,5.1l-2.5,4.2l-3.5,4.7l-2.6-3.1l-2.7-1.7l-1.2-2.1l-2.4-6.3
			l-1.6-4.5l-2.2-4.2l-0.6-3.8l-1-3.7l4-2.9l3.4-1.9l3.4-0.7l3.2-0.1h1.7l1.7-7.3l1.3-6.5l1.1-4.6l2.9-0.9l2.7-1.7l2.6-2.5l0.5-5.9
			l1.2-4.5l1-5.1c0,0,0.7-3.9,1.1-4.5c0.4-0.5,2.9-5.1,2.9-5.1l3-3.8l1.1-6.2c0,0,0.9-4.2,0.9-4.6c0-0.3,0.6-5.6,0.6-5.6
			s0-4.1,0.2-4.5c0.2-0.3,0.6-6.1,0.6-6.1l2-6.8l0.4-4l-0.3-4.7l-1.2-6.6l-1-8.9l-3.8-9.1l-4.6-5.1l-3.4-5.2l-3-4.6l-4-5.4l-2.4-3.8
			L305.1,0H173.4l-3.6,3.1l-3.8,4.8l-3.3,3.9c0,0-4.2,3.9-4.2,4.2c0,0.3-5.3,8.1-5.3,8.1s-1.2,4.5-1.3,4.8c-0.1,0.3-3.5,2.6-3.5,2.6
			l-5,3.4l-5.3,4l-1.9,0.4l-5.5-2l-4.9-2.5l-3.8-2.7l-4-3.3c0,0-1.5,1.3-1.1,1.7c0.3,0.3,2.1,2.4,2.5,3c0.4,0.6,5.2,4.1,5.2,4.1
			l6.5,2.7l3.6,2.5c0,0-5.2,0.9-5.6,0.9s-6.7,0.1-6.7,0.1l-9.1,0.3l-4.6,0.8l-1.9,1.7l13.3,2.9c0,0,5.8,0.1,6.6,0.1
			c0.8,0,7.9,0.1,7.9,0.1l5.1,0.7c0,0-3.8,2.1-4.4,2.2c-0.5,0.1-3.9,0.8-5,0.8s-6.5,0.4-6.5,0.4h-6.2l-4.2,1.9l5.6-0.1
			c0,0,4.7,0,5,0s3-0.2,4.8-0.2s5.5,0.1,5.5,0.1l2.8,0.1l-3.9,2.5l-5.5,1.5l-4.5,1l-2.8,0.8l-5.9,1.1l-4.4,1.5l-6.1-0.8l-5.5-0.9
			l-2,0.7l2,2.9c0,0,2.2,0.6,3.5,1.2c1.3,0.6,5,1.5,7.5,1.9c2.5,0.4,8.8,0.4,10.8,0.6s8.8,0.9,9.1,0.9c0.3,0,4.2-0.7,4.7-0.7
			c0.4,0,4.5,0.7,4.5,0.7s3.8,0.9,4.5,0.9s11.8,3,11.8,3l1.6,2.7l1.7,1.1c0,0-2.9,1.6-3.2,2c-0.3,0.4-2.4,2.4-2.4,2.4
			s-1.5,1.5-2,1.7c-0.5,0.2-5.2,0.5-5.8,0.4s-5-1.9-5-1.9l2.5,3.9c0,0,2.5,0.9,2.9,0.9c0.4,0,8.2-0.3,8.2-0.3l0.7,1.1
			c0,0-1.9,1.8-2.5,2.2s-4.1,3.1-4.1,3.1s-2.1,1.7-2.7,1.9s-2.3,0.8-2.3,0.8l8.9,1.2C65.9,117.2,2.5,193.3,2.5,284.2
			c0,105.5,85.6,191.1,191.1,191.1c30.2,0,58.7-7,84-19.4l0.8,7.5l1.7,12.5l-0.8,3.9l-0.8,1.1l-8-2.1l-12-1.8l-10.6-1h-11.6
			l-8.7,0.8l-6.2,0.8l-8.2,2.3l-11.3,2.5l-8.2,2.6l-3.4,2.1l-5.5-0.8l-6.9-1l-11.3,1.8l-7.2,1.2l-9.9,2.6l-5.4,2.3l-4-0.7l-6.4-1.2
			l-2.6-0.1l-9.1-1.2l-3,3.3l-2.8,4.1l-1.9,5.7l-3,15.7l-4.4,13.8l-4,12.6l-1.5,9.4l-1.5,10.3v7v5.5l1.5,5.2l2.4,6.2l2.5,3.7
			l3.4,1.8c0,0,2.4,0.6,2.7,0.6s4.8,0,4.8,0l3.1-2.2l2.7-2.8l2.1-4.8l1.3-4l1.3-4.6l1.1-5.3l3.5-4.6l4.5-3.4l4-4.8l4.9-2.1l5-2.3
			l2-0.9l-3.5-3.1l3.5-1.6l3-2.9l3.2-0.4c0,0,3.2,0.1,3.5,0c0.3-0.1,4.8-1.6,4.8-1.6s4.2-1.2,4.6-1.3c0.3-0.1,5.4-1.7,5.4-1.7h5.3
			l3.5,0.8c0,0,9-0.1,9.3-0.1c0.3,0,5.8-1.3,5.8-1.3l15.3-0.6l32-0.2l27.3,1.1h9.8h9.8l8.9-1.5l8.1-3.4l4.2-4.1l2.8-3.9l6.2-10.2
			l5.4-13.4l3.5-9.1l1-4l2.9-2.9l2.6-1.7l2.5,0.3l1.7,1.9l7.7,6.4l1.4,1.4l-2.9,9l-3.2,8.7l-4.8,13.5l-2.2,12l-1.2,13.4l0.1,9.4
			l-1,13.1l-1.4,7.2l-2.2,12.4l-0.6,2.5h36.6l1.9-9.3l3.5-10.1l4.7-13l2.6-9.4l2.8-7.9l1.8-5.9l6.2-2.3l10.5-4.4L423,530l18.1-5.5
			c0,0,12.4-6.8,12.8-6.9c0.4-0.1,9.8-7.5,9.8-7.5l4.3-2.8l7.7-7.7l3.3-4.7l2.2-4.4v-4.7L479,483l-3.3-1.2l-3,0.1L469,484l-2.3,2.6
			l-2.8,0.1l-4.7-0.6l0.3-1.5l9-5.9l7-5.5l4.8-5l4.4-5.2l2.5-3.3l0.8-3.2L487.3,453.7z"/>
	</defs>
	<clipPath id="SVGID_2_">
		<use xlink:href="#SVGID_1_"  overflow="visible"/>
	</clipPath>
</g>
</svg>
