<?xml version="1.0" encoding="utf-8"?>
<!-- Generator: Adobe Illustrator 17.1.0, SVG Export Plug-In . SVG Version: 6.00 Build 0)  -->
<!DOCTYPE svg PUBLIC "-//W3C//DTD SVG 1.1 Tiny//EN" "http://www.w3.org/Graphics/SVG/1.1/DTD/svg11-tiny.dtd">
<svg version="1.1" baseProfile="tiny" id="Layer_1" xmlns="http://www.w3.org/2000/svg" xmlns:xlink="http://www.w3.org/1999/xlink"
	 x="0px" y="0px" width="600px" height="600px" viewBox="0 0 600 600" xml:space="preserve">
<g>
	<path d="M507.1,324.1c-119.6-73.5-294.6-94.2-435.4-51.5c-16,4.9-25,21.7-20.2,37.7c4.9,16,21.7,25,37.7,20.1
		c123.2-37.4,282.1-18.9,386.2,45.2c14.2,8.7,32.8,4.3,41.6-10C525.8,351.5,521.3,332.9,507.1,324.1z"/>
	<path d="M558.2,193.4C414.3,108,186.7,100,49.8,141.6c-19.2,5.8-30,26.1-24.2,45.2c5.8,19.2,26.1,30,45.2,24.2
		c119.3-36.2,325.4-29.4,450.3,44.8c17.2,10.2,39.5,4.5,49.7-12.7C581,225.9,575.4,203.6,558.2,193.4z"/>
	<path d="M461.6,438c-102.2-62.4-228.8-77-376.5-43.2c-13,3-21.1,15.9-18.2,28.9c3,13,15.9,21.1,28.9,18.2
		c134.9-30.8,249.5-18.3,340.5,37.4c11.4,7,26.3,3.4,33.2-8C476.6,459.8,473,444.9,461.6,438z"/>
</g>
</svg>
