<?xml version="1.0" encoding="utf-8"?>
<!-- Generator: Adobe Illustrator 17.1.0, SVG Export Plug-In . SVG Version: 6.00 Build 0)  -->
<!DOCTYPE svg PUBLIC "-//W3C//DTD SVG 1.1//EN" "http://www.w3.org/Graphics/SVG/1.1/DTD/svg11.dtd">
<svg version="1.1" id="Layer_2" xmlns="http://www.w3.org/2000/svg" xmlns:xlink="http://www.w3.org/1999/xlink" x="0px" y="0px"
	 width="291px" height="291px" viewBox="0 0 291 291" enable-background="new 0 0 291 291" xml:space="preserve">
<g>
	<path d="M219.9,153.9c-41.2-25.4-101.6-32.5-150.2-17.8c-5.5,1.7-8.6,7.4-6.9,13c1.7,5.5,7.5,8.6,13,6.9
		c42.5-12.9,97.3-6.5,133.2,15.6c4.9,3,11.3,1.5,14.4-3.5C226.4,163.3,224.9,156.9,219.9,153.9z"/>
	<path d="M237.5,108.7C187.9,79.3,109.4,76.5,62.2,90.8c-6.6,2-10.3,9-8.4,15.6c2,6.6,9,10.3,15.6,8.4
		c41.2-12.5,112.2-10.2,155.3,15.4c5.9,3.5,13.6,1.6,17.2-4.4C245.4,119.9,243.5,112.2,237.5,108.7z"/>
	<path d="M204.3,193.1c-35.2-21.6-78.9-26.6-129.9-14.9c-4.5,1.1-7.3,5.5-6.2,10c1.1,4.5,5.5,7.3,10,6.2
		c46.5-10.6,86.1-6.3,117.4,12.9c3.9,2.4,9,1.1,11.4-2.8C209.5,200.7,208.2,195.5,204.3,193.1z"/>
</g>
</svg>
